<?xml version="1.0" encoding="UTF-8"?><svg id="_レイヤー_1" xmlns="http://www.w3.org/2000/svg" viewBox="0 0 768 1366"><circle cx="370.83" cy="395.39" r="16.5" fill="#e98300" stroke="#000" stroke-miterlimit="10" stroke-width="2"/><circle cx="354.33" cy="423.97" r="16.5" fill="#e98300" stroke="#000" stroke-miterlimit="10" stroke-width="2"/><circle cx="370.83" cy="452.54" r="16.5" fill="#e98300" stroke="#000" stroke-miterlimit="10" stroke-width="2"/><circle cx="354.33" cy="481.12" r="16.5" fill="#e98300" stroke="#000" stroke-miterlimit="10" stroke-width="2"/><circle cx="370.83" cy="509.7" r="16.5" fill="#e98300" stroke="#000" stroke-miterlimit="10" stroke-width="2"/><circle cx="469.83" cy="509.7" r="16.5" fill="#e98300" stroke="#000" stroke-miterlimit="10" stroke-width="2"/><circle cx="502.83" cy="509.7" r="16.5" fill="#e98300" stroke="#000" stroke-miterlimit="10" stroke-width="2"/><circle cx="535.83" cy="509.7" r="16.5" fill="#e98300" stroke="#000" stroke-miterlimit="10" stroke-width="2"/><circle cx="189.33" cy="538.28" r="16.5" fill="#e98300" stroke="#000" stroke-miterlimit="10" stroke-width="2"/><circle cx="222.33" cy="538.28" r="16.5" fill="#e98300" stroke="#000" stroke-miterlimit="10" stroke-width="2"/><circle cx="255.33" cy="538.28" r="16.5" fill="#e98300" stroke="#000" stroke-miterlimit="10" stroke-width="2"/><circle cx="288.33" cy="538.28" r="16.5" fill="#e98300" stroke="#000" stroke-miterlimit="10" stroke-width="2"/><circle cx="321.33" cy="538.28" r="16.5" fill="#e98300" stroke="#000" stroke-miterlimit="10" stroke-width="2"/><circle cx="354.33" cy="538.28" r="16.5" fill="#e98300" stroke="#000" stroke-miterlimit="10" stroke-width="2"/><circle cx="387.33" cy="538.28" r="16.5" fill="#e98300" stroke="#000" stroke-miterlimit="10" stroke-width="2"/><circle cx="420.33" cy="538.28" r="16.5" fill="#e98300" stroke="#000" stroke-miterlimit="10" stroke-width="2"/><circle cx="453.33" cy="538.28" r="16.5" fill="#e98300" stroke="#000" stroke-miterlimit="10" stroke-width="2"/><circle cx="486.33" cy="538.28" r="16.5" fill="#e98300" stroke="#000" stroke-miterlimit="10" stroke-width="2"/><circle cx="337.83" cy="566.86" r="16.5" fill="#e98300" stroke="#000" stroke-miterlimit="10" stroke-width="2"/><circle cx="354.33" cy="595.43" r="16.5" fill="#e98300" stroke="#000" stroke-miterlimit="10" stroke-width="2"/><circle cx="337.83" cy="624.01" r="16.5" fill="#e98300" stroke="#000" stroke-miterlimit="10" stroke-width="2"/><circle cx="354.33" cy="652.59" r="16.5" fill="#e98300" stroke="#000" stroke-miterlimit="10" stroke-width="2"/><circle cx="486.33" cy="652.59" r="16.5" fill="#e98300" stroke="#000" stroke-miterlimit="10" stroke-width="2"/><circle cx="238.83" cy="681.17" r="16.5" fill="#e98300" stroke="#000" stroke-miterlimit="10" stroke-width="2"/><circle cx="271.83" cy="681.17" r="16.5" fill="#e98300" stroke="#000" stroke-miterlimit="10" stroke-width="2"/><circle cx="304.83" cy="681.17" r="16.5" fill="#e98300" stroke="#000" stroke-miterlimit="10" stroke-width="2"/><circle cx="337.83" cy="681.17" r="16.5" fill="#e98300" stroke="#000" stroke-miterlimit="10" stroke-width="2"/><circle cx="370.83" cy="681.17" r="16.5" fill="#e98300" stroke="#000" stroke-miterlimit="10" stroke-width="2"/><circle cx="403.83" cy="681.17" r="16.5" fill="#e98300" stroke="#000" stroke-miterlimit="10" stroke-width="2"/><circle cx="469.83" cy="681.17" r="16.5" fill="#e98300" stroke="#000" stroke-miterlimit="10" stroke-width="2"/><circle cx="502.83" cy="681.17" r="16.5" fill="#e98300" stroke="#000" stroke-miterlimit="10" stroke-width="2"/><circle cx="156.33" cy="709.74" r="16.5" fill="#e98300" stroke="#000" stroke-miterlimit="10" stroke-width="2"/><circle cx="189.33" cy="709.74" r="16.5" fill="#e98300" stroke="#000" stroke-miterlimit="10" stroke-width="2"/><circle cx="222.33" cy="709.74" r="16.5" fill="#e98300" stroke="#000" stroke-miterlimit="10" stroke-width="2"/><circle cx="354.33" cy="709.74" r="16.5" fill="#e98300" stroke="#000" stroke-miterlimit="10" stroke-width="2"/><circle cx="387.33" cy="709.74" r="16.5" fill="#e98300" stroke="#000" stroke-miterlimit="10" stroke-width="2"/><circle cx="420.33" cy="709.74" r="16.5" fill="#e98300" stroke="#000" stroke-miterlimit="10" stroke-width="2"/><circle cx="453.33" cy="709.74" r="16.5" fill="#e98300" stroke="#000" stroke-miterlimit="10" stroke-width="2"/><circle cx="486.33" cy="709.74" r="16.5" fill="#e98300" stroke="#000" stroke-miterlimit="10" stroke-width="2"/><circle cx="519.33" cy="709.74" r="16.5" fill="#e98300" stroke="#000" stroke-miterlimit="10" stroke-width="2"/><circle cx="552.33" cy="709.74" r="16.5" fill="#e98300" stroke="#000" stroke-miterlimit="10" stroke-width="2"/><circle cx="172.83" cy="738.32" r="16.5" fill="#e98300" stroke="#000" stroke-miterlimit="10" stroke-width="2"/><circle cx="370.83" cy="738.32" r="16.5" fill="#e98300" stroke="#000" stroke-miterlimit="10" stroke-width="2"/><circle cx="436.83" cy="738.32" r="16.5" fill="#e98300" stroke="#000" stroke-miterlimit="10" stroke-width="2"/><circle cx="469.83" cy="738.32" r="16.5" fill="#e98300" stroke="#000" stroke-miterlimit="10" stroke-width="2"/><circle cx="535.83" cy="738.32" r="16.5" fill="#e98300" stroke="#000" stroke-miterlimit="10" stroke-width="2"/><circle cx="568.83" cy="738.32" r="16.5" fill="#e98300" stroke="#000" stroke-miterlimit="10" stroke-width="2"/><circle cx="601.83" cy="738.32" r="16.5" fill="#e98300" stroke="#000" stroke-miterlimit="10" stroke-width="2"/><circle cx="634.83" cy="738.32" r="16.5" fill="#e98300" stroke="#000" stroke-miterlimit="10" stroke-width="2"/><circle cx="156.33" cy="766.9" r="16.5" fill="#e98300" stroke="#000" stroke-miterlimit="10" stroke-width="2"/><circle cx="354.33" cy="766.9" r="16.5" fill="#e98300" stroke="#000" stroke-miterlimit="10" stroke-width="2"/><circle cx="420.33" cy="766.9" r="16.5" fill="#e98300" stroke="#000" stroke-miterlimit="10" stroke-width="2"/><circle cx="453.33" cy="766.9" r="16.5" fill="#e98300" stroke="#000" stroke-miterlimit="10" stroke-width="2"/><circle cx="618.33" cy="766.9" r="16.5" fill="#e98300" stroke="#000" stroke-miterlimit="10" stroke-width="2"/><circle cx="651.33" cy="766.9" r="16.5" fill="#e98300" stroke="#000" stroke-miterlimit="10" stroke-width="2"/><circle cx="172.83" cy="795.48" r="16.5" fill="#e98300" stroke="#000" stroke-miterlimit="10" stroke-width="2"/><circle cx="370.83" cy="795.48" r="16.5" fill="#e98300" stroke="#000" stroke-miterlimit="10" stroke-width="2"/><circle cx="403.83" cy="795.48" r="16.5" fill="#e98300" stroke="#000" stroke-miterlimit="10" stroke-width="2"/><circle cx="634.83" cy="795.48" r="16.5" fill="#e98300" stroke="#000" stroke-miterlimit="10" stroke-width="2"/><circle cx="667.83" cy="795.48" r="16.5" fill="#e98300" stroke="#000" stroke-miterlimit="10" stroke-width="2"/><circle cx="156.33" cy="824.05" r="16.5" fill="#e98300" stroke="#000" stroke-miterlimit="10" stroke-width="2"/><circle cx="354.33" cy="824.05" r="16.5" fill="#e98300" stroke="#000" stroke-miterlimit="10" stroke-width="2"/><circle cx="387.33" cy="824.05" r="16.5" fill="#e98300" stroke="#000" stroke-miterlimit="10" stroke-width="2"/><circle cx="651.33" cy="824.05" r="16.5" fill="#e98300" stroke="#000" stroke-miterlimit="10" stroke-width="2"/><circle cx="684.33" cy="824.05" r="16.5" fill="#e98300" stroke="#000" stroke-miterlimit="10" stroke-width="2"/><circle cx="172.83" cy="852.63" r="16.5" fill="#e98300" stroke="#000" stroke-miterlimit="10" stroke-width="2"/><circle cx="337.83" cy="852.63" r="16.5" fill="#e98300" stroke="#000" stroke-miterlimit="10" stroke-width="2"/><circle cx="370.83" cy="852.63" r="16.5" fill="#e98300" stroke="#000" stroke-miterlimit="10" stroke-width="2"/><circle cx="667.83" cy="852.63" r="16.5" fill="#e98300" stroke="#000" stroke-miterlimit="10" stroke-width="2"/><circle cx="156.33" cy="881.21" r="16.5" fill="#e98300" stroke="#000" stroke-miterlimit="10" stroke-width="2"/><circle cx="288.33" cy="881.21" r="16.5" fill="#e98300" stroke="#000" stroke-miterlimit="10" stroke-width="2"/><circle cx="321.33" cy="881.21" r="16.5" fill="#e98300" stroke="#000" stroke-miterlimit="10" stroke-width="2"/><circle cx="387.33" cy="881.21" r="16.5" fill="#e98300" stroke="#000" stroke-miterlimit="10" stroke-width="2"/><circle cx="684.33" cy="881.21" r="16.5" fill="#e98300" stroke="#000" stroke-miterlimit="10" stroke-width="2"/><circle cx="172.83" cy="909.79" r="16.5" fill="#e98300" stroke="#000" stroke-miterlimit="10" stroke-width="2"/><circle cx="238.83" cy="909.79" r="16.5" fill="#e98300" stroke="#000" stroke-miterlimit="10" stroke-width="2"/><circle cx="271.83" cy="909.79" r="16.5" fill="#e98300" stroke="#000" stroke-miterlimit="10" stroke-width="2"/><circle cx="304.83" cy="909.79" r="16.5" fill="#e98300" stroke="#000" stroke-miterlimit="10" stroke-width="2"/><circle cx="370.83" cy="909.79" r="16.5" fill="#e98300" stroke="#000" stroke-miterlimit="10" stroke-width="2"/><circle cx="403.83" cy="909.79" r="16.5" fill="#e98300" stroke="#000" stroke-miterlimit="10" stroke-width="2"/><circle cx="156.33" cy="938.36" r="16.5" fill="#e98300" stroke="#000" stroke-miterlimit="10" stroke-width="2"/><circle cx="189.33" cy="938.36" r="16.5" fill="#e98300" stroke="#000" stroke-miterlimit="10" stroke-width="2"/><circle cx="222.33" cy="938.36" r="16.5" fill="#e98300" stroke="#000" stroke-miterlimit="10" stroke-width="2"/><circle cx="255.33" cy="938.36" r="16.5" fill="#e98300" stroke="#000" stroke-miterlimit="10" stroke-width="2"/></svg>