<?xml version="1.0" encoding="UTF-8"?>
<svg id="_レイヤー_1" data-name=" レイヤー 1" xmlns="http://www.w3.org/2000/svg" width="1255.98" height="667.22" viewBox="0 0 1255.98 667.22">
  <circle cx="279.49" cy="455.66" r="14.22" fill="#73ef96" stroke="#0ec47e" stroke-miterlimit="10" stroke-width=".5"/>
  <circle cx="307.94" cy="455.66" r="14.22" fill="#73ef96" stroke="#0ec47e" stroke-miterlimit="10" stroke-width=".5"/>
  <circle cx="236.82" cy="431.02" r="14.22" fill="#73ef96" stroke="#0ec47e" stroke-miterlimit="10" stroke-width=".5"/>
  <circle cx="265.27" cy="431.02" r="14.22" fill="#73ef96" stroke="#0ec47e" stroke-miterlimit="10" stroke-width=".5"/>
  <circle cx="179.92" cy="431.02" r="14.22" fill="#73ef96" stroke="#0ec47e" stroke-miterlimit="10" stroke-width=".5"/>
  <circle cx="208.37" cy="431.02" r="14.22" fill="#73ef96" stroke="#0ec47e" stroke-miterlimit="10" stroke-width=".5"/>
  <circle cx="222.6" cy="406.38" r="14.22" fill="#73ef96" stroke="#0ec47e" stroke-miterlimit="10" stroke-width=".5"/>
  <circle cx="251.05" cy="406.38" r="14.22" fill="#73ef96" stroke="#0ec47e" stroke-miterlimit="10" stroke-width=".5"/>
  <circle cx="165.7" cy="455.66" r="14.22" fill="#73ef96" stroke="#0ec47e" stroke-miterlimit="10" stroke-width=".5"/>
  <circle cx="194.15" cy="455.66" r="14.22" fill="#73ef96" stroke="#0ec47e" stroke-miterlimit="10" stroke-width=".5"/>
  <circle cx="151.47" cy="480.29" r="14.22" fill="#73ef96" stroke="#0ec47e" stroke-miterlimit="10" stroke-width=".5"/>
  <circle cx="179.92" cy="480.29" r="14.22" fill="#73ef96" stroke="#0ec47e" stroke-miterlimit="10" stroke-width=".5"/>
  <circle cx="165.7" cy="504.93" r="14.22" fill="#73ef96" stroke="#0ec47e" stroke-miterlimit="10" stroke-width=".5"/>
  <circle cx="194.15" cy="504.93" r="14.22" fill="#73ef96" stroke="#0ec47e" stroke-miterlimit="10" stroke-width=".5"/>
  <circle cx="208.37" cy="529.56" r="14.22" fill="#73ef96" stroke="#0ec47e" stroke-miterlimit="10" stroke-width=".5"/>
  <circle cx="236.82" cy="529.56" r="14.22" fill="#73ef96" stroke="#0ec47e" stroke-miterlimit="10" stroke-width=".5"/>
  <circle cx="265.27" cy="529.56" r="14.22" fill="#73ef96" stroke="#0ec47e" stroke-miterlimit="10" stroke-width=".5"/>
  <circle cx="293.72" cy="529.56" r="14.22" fill="#73ef96" stroke="#0ec47e" stroke-miterlimit="10" stroke-width=".5"/>
  <circle cx="279.49" cy="554.2" r="14.22" fill="#73ef96" stroke="#0ec47e" stroke-miterlimit="10" stroke-width=".5"/>
  <circle cx="307.94" cy="554.2" r="14.22" fill="#73ef96" stroke="#0ec47e" stroke-miterlimit="10" stroke-width=".5"/>
  <circle cx="322.16" cy="578.84" r="14.22" fill="#73ef96" stroke="#0ec47e" stroke-miterlimit="10" stroke-width=".5"/>
  <circle cx="293.72" cy="578.84" r="14.22" fill="#73ef96" stroke="#0ec47e" stroke-miterlimit="10" stroke-width=".5"/>
  <circle cx="279.49" cy="603.47" r="14.22" fill="#73ef96" stroke="#0ec47e" stroke-miterlimit="10" stroke-width=".5"/>
  <circle cx="307.94" cy="603.47" r="14.22" fill="#73ef96" stroke="#0ec47e" stroke-miterlimit="10" stroke-width=".5"/>
  <circle cx="236.82" cy="628.11" r="14.22" fill="#73ef96" stroke="#0ec47e" stroke-miterlimit="10" stroke-width=".5"/>
  <circle cx="265.27" cy="628.11" r="14.22" fill="#73ef96" stroke="#0ec47e" stroke-miterlimit="10" stroke-width=".5"/>
  <circle cx="179.92" cy="628.11" r="14.22" fill="#73ef96" stroke="#0ec47e" stroke-miterlimit="10" stroke-width=".5"/>
  <circle cx="208.37" cy="628.11" r="14.22" fill="#73ef96" stroke="#0ec47e" stroke-miterlimit="10" stroke-width=".5"/>
  <circle cx="165.7" cy="603.47" r="14.22" fill="#73ef96" stroke="#0ec47e" stroke-miterlimit="10" stroke-width=".5"/>
  <circle cx="194.15" cy="603.47" r="14.22" fill="#73ef96" stroke="#0ec47e" stroke-miterlimit="10" stroke-width=".5"/>
  <circle cx="151.47" cy="578.84" r="14.22" fill="#73ef96" stroke="#0ec47e" stroke-miterlimit="10" stroke-width=".5"/>
  <circle cx="179.92" cy="578.84" r="14.22" fill="#73ef96" stroke="#0ec47e" stroke-miterlimit="10" stroke-width=".5"/>
  <circle cx="293.72" cy="431.02" r="14.22" fill="#73ef96" stroke="#0ec47e" stroke-miterlimit="10" stroke-width=".5"/>
  <circle cx="293.72" cy="628.11" r="14.22" fill="#73ef96" stroke="#0ec47e" stroke-miterlimit="10" stroke-width=".5"/>
  <circle cx="222.6" cy="652.75" r="14.22" fill="#73ef96" stroke="#0ec47e" stroke-miterlimit="10" stroke-width=".5"/>
  <circle cx="251.05" cy="652.75" r="14.22" fill="#73ef96" stroke="#0ec47e" stroke-miterlimit="10" stroke-width=".5"/>
  <path d="m1012.06,366.71c2.43,0,4.4,1.97,4.4,4.4s-1.97,4.4-4.4,4.4-4.4-1.97-4.4-4.4,1.97-4.4,4.4-4.4Z" fill="#9af4eb" stroke="#0068ff" stroke-miterlimit="10" stroke-width=".5"/>
  <circle cx="1073.73" cy="371.11" r="4.4" fill="#9af4eb" stroke="#0068ff" stroke-miterlimit="10" stroke-width=".5"/>
  <circle cx="1082.54" cy="371.11" r="4.4" fill="#9af4eb" stroke="#0068ff" stroke-miterlimit="10" stroke-width=".5"/>
  <circle cx="1091.34" cy="371.11" r="4.4" fill="#9af4eb" stroke="#0068ff" stroke-miterlimit="10" stroke-width=".5"/>
  <circle cx="1100.15" cy="371.11" r="4.4" fill="#9af4eb" stroke="#0068ff" stroke-miterlimit="10" stroke-width=".5"/>
  <circle cx="1069.32" cy="378.73" r="4.4" fill="#9af4eb" stroke="#0068ff" stroke-miterlimit="10" stroke-width=".5"/>
  <circle cx="1104.56" cy="378.73" r="4.4" fill="#9af4eb" stroke="#0068ff" stroke-miterlimit="10" stroke-width=".5"/>
  <circle cx="1157.42" cy="378.73" r="4.4" fill="#9af4eb" stroke="#0068ff" stroke-miterlimit="10" stroke-width=".5"/>
  <path d="m1012.06,381.96c2.43,0,4.4,1.97,4.4,4.4s-1.97,4.4-4.4,4.4-4.4-1.97-4.4-4.4,1.97-4.4,4.4-4.4Z" fill="#9af4eb" stroke="#0068ff" stroke-miterlimit="10" stroke-width=".5"/>
  <circle cx="1064.92" cy="386.36" r="4.4" fill="#9af4eb" stroke="#0068ff" stroke-miterlimit="10" stroke-width=".5"/>
  <circle cx="1100.15" cy="386.36" r="4.4" fill="#9af4eb" stroke="#0068ff" stroke-miterlimit="10" stroke-width=".5"/>
  <circle cx="1060.51" cy="393.99" r="4.4" fill="#9af4eb" stroke="#0068ff" stroke-miterlimit="10" stroke-width=".5"/>
  <circle cx="1095.75" cy="393.99" r="4.4" fill="#9af4eb" stroke="#0068ff" stroke-miterlimit="10" stroke-width=".5"/>
  <circle cx="1157.42" cy="393.99" r="4.4" fill="#9af4eb" stroke="#0068ff" stroke-miterlimit="10" stroke-width=".5"/>
  <path d="m1012.06,397.22c2.43,0,4.4,1.97,4.4,4.4s-1.97,4.4-4.4,4.4-4.4-1.97-4.4-4.4,1.97-4.4,4.4-4.4Z" fill="#9af4eb" stroke="#0068ff" stroke-miterlimit="10" stroke-width=".5"/>
  <circle cx="1064.92" cy="401.62" r="4.4" fill="#9af4eb" stroke="#0068ff" stroke-miterlimit="10" stroke-width=".5"/>
  <circle cx="1091.34" cy="401.62" r="4.4" fill="#9af4eb" stroke="#0068ff" stroke-miterlimit="10" stroke-width=".5"/>
  <circle cx="1153.01" cy="401.62" r="4.4" fill="#9af4eb" stroke="#0068ff" stroke-miterlimit="10" stroke-width=".5"/>
  <circle cx="1016.46" cy="409.25" r="4.4" fill="#9af4eb" stroke="#0068ff" stroke-miterlimit="10" stroke-width=".5"/>
  <circle cx="1069.32" cy="409.25" r="4.4" fill="#9af4eb" stroke="#0068ff" stroke-miterlimit="10" stroke-width=".5"/>
  <circle cx="1086.94" cy="409.25" r="4.4" fill="#9af4eb" stroke="#0068ff" stroke-miterlimit="10" stroke-width=".5"/>
  <circle cx="1148.61" cy="409.25" r="4.4" fill="#9af4eb" stroke="#0068ff" stroke-miterlimit="10" stroke-width=".5"/>
  <circle cx="1020.87" cy="416.88" r="4.4" fill="#9af4eb" stroke="#0068ff" stroke-miterlimit="10" stroke-width=".5"/>
  <circle cx="1073.73" cy="416.88" r="4.4" fill="#9af4eb" stroke="#0068ff" stroke-miterlimit="10" stroke-width=".5"/>
  <circle cx="1082.54" cy="416.88" r="4.4" fill="#9af4eb" stroke="#0068ff" stroke-miterlimit="10" stroke-width=".5"/>
  <circle cx="1144.2" cy="416.88" r="4.4" fill="#9af4eb" stroke="#0068ff" stroke-miterlimit="10" stroke-width=".5"/>
  <circle cx="1025.27" cy="424.51" r="4.4" fill="#9af4eb" stroke="#0068ff" stroke-miterlimit="10" stroke-width=".5"/>
  <circle cx="1034.08" cy="424.51" r="4.4" fill="#9af4eb" stroke="#0068ff" stroke-miterlimit="10" stroke-width=".5"/>
  <circle cx="1042.89" cy="424.51" r="4.4" fill="#9af4eb" stroke="#0068ff" stroke-miterlimit="10" stroke-width=".5"/>
  <circle cx="1051.7" cy="424.51" r="4.4" fill="#9af4eb" stroke="#0068ff" stroke-miterlimit="10" stroke-width=".5"/>
  <circle cx="1060.51" cy="424.51" r="4.4" fill="#9af4eb" stroke="#0068ff" stroke-miterlimit="10" stroke-width=".5"/>
  <circle cx="1069.32" cy="424.51" r="4.4" fill="#9af4eb" stroke="#0068ff" stroke-miterlimit="10" stroke-width=".5"/>
  <circle cx="1078.13" cy="424.51" r="4.4" fill="#9af4eb" stroke="#0068ff" stroke-miterlimit="10" stroke-width=".5"/>
  <circle cx="1139.8" cy="424.51" r="4.4" fill="#9af4eb" stroke="#0068ff" stroke-miterlimit="10" stroke-width=".5"/>
  <circle cx="1073.73" cy="432.14" r="4.4" fill="#9af4eb" stroke="#0068ff" stroke-miterlimit="10" stroke-width=".5"/>
  <circle cx="1135.39" cy="432.14" r="4.4" fill="#9af4eb" stroke="#0068ff" stroke-miterlimit="10" stroke-width=".5"/>
  <circle cx="1069.32" cy="439.77" r="4.4" fill="#9af4eb" stroke="#0068ff" stroke-miterlimit="10" stroke-width=".5"/>
  <circle cx="1130.99" cy="439.77" r="4.4" fill="#9af4eb" stroke="#0068ff" stroke-miterlimit="10" stroke-width=".5"/>
  <circle cx="1064.92" cy="447.4" r="4.4" fill="#9af4eb" stroke="#0068ff" stroke-miterlimit="10" stroke-width=".5"/>
  <circle cx="1126.58" cy="447.4" r="4.4" fill="#9af4eb" stroke="#0068ff" stroke-miterlimit="10" stroke-width=".5"/>
  <circle cx="1060.51" cy="455.03" r="4.4" fill="#9af4eb" stroke="#0068ff" stroke-miterlimit="10" stroke-width=".5"/>
  <circle cx="1122.18" cy="455.03" r="4.4" fill="#9af4eb" stroke="#0068ff" stroke-miterlimit="10" stroke-width=".5"/>
  <circle cx="1051.66" cy="455.03" r="4.4" fill="#9af4eb" stroke="#0068ff" stroke-miterlimit="10" stroke-width=".5"/>
  <circle cx="1113.32" cy="455.03" r="4.4" fill="#9af4eb" stroke="#0068ff" stroke-miterlimit="10" stroke-width=".5"/>
  <circle cx="1047.25" cy="462.66" r="4.4" fill="#9af4eb" stroke="#0068ff" stroke-miterlimit="10" stroke-width=".5"/>
  <circle cx="1042.85" cy="470.28" r="4.4" fill="#9af4eb" stroke="#0068ff" stroke-miterlimit="10" stroke-width=".5"/>
  <circle cx="1038.44" cy="477.91" r="4.4" fill="#9af4eb" stroke="#0068ff" stroke-miterlimit="10" stroke-width=".5"/>
  <circle cx="1030.11" cy="485.54" r="4.4" fill="#9af4eb" stroke="#0068ff" stroke-miterlimit="10" stroke-width=".5"/>
  <circle cx="1025.7" cy="493.17" r="4.4" fill="#9af4eb" stroke="#0068ff" stroke-miterlimit="10" stroke-width=".5"/>
  <circle cx="1021.3" cy="500.8" r="4.4" fill="#9af4eb" stroke="#0068ff" stroke-miterlimit="10" stroke-width=".5"/>
  <circle cx="1016.89" cy="508.43" r="4.4" fill="#9af4eb" stroke="#0068ff" stroke-miterlimit="10" stroke-width=".5"/>
  <circle cx="1012.49" cy="516.06" r="4.4" fill="#9af4eb" stroke="#0068ff" stroke-miterlimit="10" stroke-width=".5"/>
  <circle cx="1008.08" cy="523.69" r="4.4" fill="#9af4eb" stroke="#0068ff" stroke-miterlimit="10" stroke-width=".5"/>
  <path d="m1012.06,526.92c2.43,0,4.4,1.97,4.4,4.4s-1.97,4.4-4.4,4.4-4.4-1.97-4.4-4.4,1.97-4.4,4.4-4.4Z" fill="#9af4eb" stroke="#0068ff" stroke-miterlimit="10" stroke-width=".5"/>
  <circle cx="1016.89" cy="538.95" r="4.4" fill="#9af4eb" stroke="#0068ff" stroke-miterlimit="10" stroke-width=".5"/>
  <circle cx="1025.7" cy="538.95" r="4.4" fill="#9af4eb" stroke="#0068ff" stroke-miterlimit="10" stroke-width=".5"/>
  <circle cx="1034.51" cy="538.95" r="4.4" fill="#9af4eb" stroke="#0068ff" stroke-miterlimit="10" stroke-width=".5"/>
  <circle cx="1043.32" cy="538.95" r="4.4" fill="#9af4eb" stroke="#0068ff" stroke-miterlimit="10" stroke-width=".5"/>
  <circle cx="1052.13" cy="538.95" r="4.4" fill="#9af4eb" stroke="#0068ff" stroke-miterlimit="10" stroke-width=".5"/>
  <circle cx="1060.94" cy="538.95" r="4.4" fill="#9af4eb" stroke="#0068ff" stroke-miterlimit="10" stroke-width=".5"/>
  <circle cx="1069.75" cy="538.95" r="4.4" fill="#9af4eb" stroke="#0068ff" stroke-miterlimit="10" stroke-width=".5"/>
  <circle cx="277.31" cy="15.39" r="5.54" fill="#ff8fdd" stroke="red" stroke-miterlimit="10" stroke-width=".5"/>
  <circle cx="305" cy="5.79" r="5.54" fill="#ff8fdd" stroke="red" stroke-miterlimit="10" stroke-width=".5"/>
  <circle cx="288.38" cy="15.39" r="5.54" fill="#ff8fdd" stroke="red" stroke-miterlimit="10" stroke-width=".5"/>
  <circle cx="282.84" cy="5.79" r="5.54" fill="#ff8fdd" stroke="red" stroke-miterlimit="10" stroke-width=".5"/>
  <circle cx="299.46" cy="15.39" r="5.54" fill="#ff8fdd" stroke="red" stroke-miterlimit="10" stroke-width=".5"/>
  <circle cx="244.06" cy="265.61" r="5.54" fill="#ff8fdd" stroke="red" stroke-miterlimit="10" stroke-width=".5"/>
  <circle cx="221.9" cy="207.29" r="5.54" fill="#ff8fdd" stroke="red" stroke-miterlimit="10" stroke-width=".5"/>
  <circle cx="216.36" cy="197.69" r="5.54" fill="#ff8fdd" stroke="red" stroke-miterlimit="10" stroke-width=".5"/>
  <circle cx="210.83" cy="188.09" r="5.54" fill="#ff8fdd" stroke="red" stroke-miterlimit="10" stroke-width=".5"/>
  <circle cx="249.6" cy="275.2" r="5.54" fill="#ff8fdd" stroke="red" stroke-miterlimit="10" stroke-width=".5"/>
  <circle cx="210.82" cy="149.71" r="5.54" fill="#ff8fdd" stroke="red" stroke-miterlimit="10" stroke-width=".5"/>
  <circle cx="216.36" cy="216.88" r="5.54" fill="#ff8fdd" stroke="red" stroke-miterlimit="10" stroke-width=".5"/>
  <circle cx="255.14" cy="284.8" r="5.54" fill="#ff8fdd" stroke="red" stroke-miterlimit="10" stroke-width=".5"/>
  <circle cx="310.54" cy="149.71" r="5.54" fill="#ff8fdd" stroke="red" stroke-miterlimit="10" stroke-width=".5"/>
  <circle cx="310.54" cy="168.9" r="5.54" fill="#ff8fdd" stroke="red" stroke-miterlimit="10" stroke-width=".5"/>
  <circle cx="216.36" cy="159.31" r="5.54" fill="#ff8fdd" stroke="red" stroke-miterlimit="10" stroke-width=".5"/>
  <circle cx="221.9" cy="226.47" r="5.54" fill="#ff8fdd" stroke="red" stroke-miterlimit="10" stroke-width=".5"/>
  <circle cx="260.68" cy="294.39" r="5.54" fill="#ff8fdd" stroke="red" stroke-miterlimit="10" stroke-width=".5"/>
  <circle cx="221.9" cy="168.9" r="5.54" fill="#ff8fdd" stroke="red" stroke-miterlimit="10" stroke-width=".5"/>
  <circle cx="216.36" cy="236.07" r="5.54" fill="#ff8fdd" stroke="red" stroke-miterlimit="10" stroke-width=".5"/>
  <circle cx="216.36" cy="178.5" r="5.54" fill="#ff8fdd" stroke="red" stroke-miterlimit="10" stroke-width=".5"/>
  <circle cx="238.52" cy="236.82" r="5.54" fill="#ff8fdd" stroke="red" stroke-miterlimit="10" stroke-width=".5"/>
  <circle cx="205.28" cy="236.07" r="5.54" fill="#ff8fdd" stroke="red" stroke-miterlimit="10" stroke-width=".5"/>
  <circle cx="232.98" cy="246.42" r="5.54" fill="#ff8fdd" stroke="red" stroke-miterlimit="10" stroke-width=".5"/>
  <circle cx="266.22" cy="34.58" r="5.54" fill="#ff8fdd" stroke="red" stroke-miterlimit="10" stroke-width=".5"/>
  <circle cx="238.52" cy="256.01" r="5.54" fill="#ff8fdd" stroke="red" stroke-miterlimit="10" stroke-width=".5"/>
  <circle cx="249.6" cy="44.17" r="5.54" fill="#ff8fdd" stroke="red" stroke-miterlimit="10" stroke-width=".5"/>
  <circle cx="260.68" cy="44.17" r="5.54" fill="#ff8fdd" stroke="red" stroke-miterlimit="10" stroke-width=".5"/>
  <circle cx="227.44" cy="82.55" r="5.54" fill="#ff8fdd" stroke="red" stroke-miterlimit="10" stroke-width=".5"/>
  <circle cx="238.52" cy="82.55" r="5.54" fill="#ff8fdd" stroke="red" stroke-miterlimit="10" stroke-width=".5"/>
  <circle cx="227.44" cy="63.36" r="5.54" fill="#ff8fdd" stroke="red" stroke-miterlimit="10" stroke-width=".5"/>
  <circle cx="244.06" cy="53.76" r="5.54" fill="#ff8fdd" stroke="red" stroke-miterlimit="10" stroke-width=".5"/>
  <circle cx="232.98" cy="92.14" r="5.54" fill="#ff8fdd" stroke="red" stroke-miterlimit="10" stroke-width=".5"/>
  <circle cx="238.52" cy="63.36" r="5.54" fill="#ff8fdd" stroke="red" stroke-miterlimit="10" stroke-width=".5"/>
  <circle cx="227.44" cy="101.74" r="5.54" fill="#ff8fdd" stroke="red" stroke-miterlimit="10" stroke-width=".5"/>
  <circle cx="255.14" cy="72.95" r="5.54" fill="#ff8fdd" stroke="red" stroke-miterlimit="10" stroke-width=".5"/>
  <circle cx="221.9" cy="111.33" r="5.54" fill="#ff8fdd" stroke="red" stroke-miterlimit="10" stroke-width=".5"/>
  <circle cx="249.6" cy="82.55" r="5.54" transform="translate(121.34 312.04) rotate(-79.1)" fill="#ff8fdd" stroke="red" stroke-miterlimit="10" stroke-width=".5"/>
  <circle cx="216.36" cy="120.92" r="5.54" fill="#ff8fdd" stroke="red" stroke-miterlimit="10" stroke-width=".5"/>
  <circle cx="216.36" cy="101.74" r="5.54" fill="#ff8fdd" stroke="red" stroke-miterlimit="10" stroke-width=".5"/>
  <circle cx="310.54" cy="188.09" r="5.54" fill="#ff8fdd" stroke="red" stroke-miterlimit="10" stroke-width=".5"/>
  <circle cx="310.54" cy="341.6" r="5.54" fill="#ff8fdd" stroke="red" stroke-miterlimit="10" stroke-width=".5"/>
  <circle cx="299.47" cy="341.6" r="5.54" fill="#ff8fdd" stroke="red" stroke-miterlimit="10" stroke-width=".5"/>
  <circle cx="305" cy="332.01" r="5.54" fill="#ff8fdd" stroke="red" stroke-miterlimit="10" stroke-width=".5"/>
  <circle cx="293.93" cy="332.01" r="5.54" fill="#ff8fdd" stroke="red" stroke-miterlimit="10" stroke-width=".5"/>
  <circle cx="282.85" cy="332.01" r="5.54" fill="#ff8fdd" stroke="red" stroke-miterlimit="10" stroke-width=".5"/>
  <circle cx="277.31" cy="322.42" r="5.54" fill="#ff8fdd" stroke="red" stroke-miterlimit="10" stroke-width=".5"/>
  <circle cx="249.6" cy="294.39" r="5.54" fill="#ff8fdd" stroke="red" stroke-miterlimit="10" stroke-width=".5"/>
  <circle cx="1186.4" cy="392.89" r="13.87" fill="#9af4eb" stroke="#0068ff" stroke-miterlimit="10" stroke-width=".5"/>
  <circle cx="1214.13" cy="392.89" r="13.87" fill="#9af4eb" stroke="#0068ff" stroke-miterlimit="10" stroke-width=".5"/>
  <circle cx="1241.86" cy="392.89" r="13.87" fill="#9af4eb" stroke="#0068ff" stroke-miterlimit="10" stroke-width=".5"/>
  <circle cx="205.28" cy="105" r="15.77" fill="#ff8fdd" stroke="red" stroke-miterlimit="10" stroke-width=".5"/>
  <circle cx="173.73" cy="105" r="15.77" fill="#ff8fdd" stroke="red" stroke-miterlimit="10" stroke-width=".5"/>
  <circle cx="268.36" cy="105" r="15.77" fill="#ff8fdd" stroke="red" stroke-miterlimit="10" stroke-width=".5"/>
  <circle cx="236.82" cy="105" r="15.77" transform="translate(95.24 321.94) rotate(-80.78)" fill="#ff8fdd" stroke="red" stroke-miterlimit="10" stroke-width=".5"/>
  <circle cx="79.1" cy="105" r="15.77" fill="#ff8fdd" stroke="red" stroke-miterlimit="10" stroke-width=".5"/>
  <circle cx="47.56" cy="105" r="15.77" fill="#ff8fdd" stroke="red" stroke-miterlimit="10" stroke-width=".5"/>
  <circle cx="142.19" cy="105" r="15.77" fill="#ff8fdd" stroke="red" stroke-miterlimit="10" stroke-width=".5"/>
  <circle cx="110.64" cy="105" r="15.77" fill="#ff8fdd" stroke="red" stroke-miterlimit="10" stroke-width=".5"/>
  <circle cx="31.79" cy="132.32" r="15.77" fill="#ff8fdd" stroke="red" stroke-miterlimit="10" stroke-width=".5"/>
  <circle cx="63.33" cy="132.32" r="15.77" fill="#ff8fdd" stroke="red" stroke-miterlimit="10" stroke-width=".5"/>
  <circle cx="16.02" cy="159.63" r="15.77" fill="#ff8fdd" stroke="red" stroke-miterlimit="10" stroke-width=".5"/>
  <circle cx="47.56" cy="159.63" r="15.77" fill="#ff8fdd" stroke="red" stroke-miterlimit="10" stroke-width=".5"/>
  <circle cx="157.97" cy="132.32" r="15.77" fill="#ff8fdd" stroke="red" stroke-miterlimit="10" stroke-width=".5"/>
  <circle cx="189.5" cy="132.32" r="15.77" fill="#ff8fdd" stroke="red" stroke-miterlimit="10" stroke-width=".5"/>
  <circle cx="142.19" cy="159.63" r="15.77" fill="#ff8fdd" stroke="red" stroke-miterlimit="10" stroke-width=".5"/>
  <circle cx="173.72" cy="159.63" r="15.77" fill="#ff8fdd" stroke="red" stroke-miterlimit="10" stroke-width=".5"/>
  <circle cx="157.97" cy="186.97" r="15.77" fill="#ff8fdd" stroke="red" stroke-miterlimit="10" stroke-width=".5"/>
  <circle cx="189.5" cy="186.97" r="15.77" fill="#ff8fdd" stroke="red" stroke-miterlimit="10" stroke-width=".5"/>
  <circle cx="142.2" cy="214.26" r="15.77" fill="#ff8fdd" stroke="red" stroke-miterlimit="10" stroke-width=".5"/>
  <circle cx="173.74" cy="214.26" r="15.77" fill="#ff8fdd" stroke="red" stroke-miterlimit="10" stroke-width=".5"/>
  <circle cx="157.96" cy="241.61" r="15.77" fill="#ff8fdd" stroke="red" stroke-miterlimit="10" stroke-width=".5"/>
  <circle cx="189.5" cy="241.61" r="15.77" fill="#ff8fdd" stroke="red" stroke-miterlimit="10" stroke-width=".5"/>
  <circle cx="142.19" cy="268.91" r="15.77" fill="#ff8fdd" stroke="red" stroke-miterlimit="10" stroke-width=".5"/>
  <circle cx="173.72" cy="268.91" r="15.77" fill="#ff8fdd" stroke="red" stroke-miterlimit="10" stroke-width=".5"/>
  <circle cx="126.42" cy="296.25" r="15.77" fill="#ff8fdd" stroke="red" stroke-miterlimit="10" stroke-width=".5"/>
  <circle cx="157.95" cy="296.25" r="15.77" fill="#ff8fdd" stroke="red" stroke-miterlimit="10" stroke-width=".5"/>
  <circle cx="126.42" cy="350.88" r="15.77" fill="#ff8fdd" stroke="red" stroke-miterlimit="10" stroke-width=".5"/>
  <circle cx="157.95" cy="350.88" r="15.77" fill="#ff8fdd" stroke="red" stroke-miterlimit="10" stroke-width=".5"/>
  <circle cx="110.65" cy="378.18" r="15.77" fill="#ff8fdd" stroke="red" stroke-miterlimit="10" stroke-width=".5"/>
  <circle cx="142.18" cy="378.18" r="15.77" fill="#ff8fdd" stroke="red" stroke-miterlimit="10" stroke-width=".5"/>
  <circle cx="94.88" cy="405.52" r="15.77" fill="#ff8fdd" stroke="red" stroke-miterlimit="10" stroke-width=".5"/>
  <circle cx="126.41" cy="405.52" r="15.77" fill="#ff8fdd" stroke="red" stroke-miterlimit="10" stroke-width=".5"/>
  <circle cx="157.96" cy="405.52" r="15.77" fill="#ff8fdd" stroke="red" stroke-miterlimit="10" stroke-width=".5"/>
  <circle cx="189.49" cy="405.52" r="15.77" fill="#ff8fdd" stroke="red" stroke-miterlimit="10" stroke-width=".5"/>
  <circle cx="142.19" cy="323.54" r="15.77" fill="#ff8fdd" stroke="red" stroke-miterlimit="10" stroke-width=".5"/>
  <circle cx="63.33" cy="405.51" r="15.77" transform="translate(-22.33 4.12) rotate(-3.17)" fill="#ff8fdd" stroke="red" stroke-miterlimit="10" stroke-width=".5"/>
  <circle cx="63.34" cy="77.69" r="15.77" fill="#ff8fdd" stroke="red" stroke-miterlimit="10" stroke-width=".5"/>
  <circle cx="299.9" cy="105" r="15.77" fill="#ff8fdd" stroke="red" stroke-miterlimit="10" stroke-width=".5"/>
  <circle cx="284.13" cy="132.32" r="15.77" fill="#ff8fdd" stroke="red" stroke-miterlimit="10" stroke-width=".5"/>
  <circle cx="299.9" cy="159.63" r="15.77" fill="#ff8fdd" stroke="red" stroke-miterlimit="10" stroke-width=".5"/>
  <circle cx="268.36" cy="159.63" r="15.77" fill="#ff8fdd" stroke="red" stroke-miterlimit="10" stroke-width=".5"/>
  <circle cx="964.42" cy="452.17" r="9.57" fill="#73ef96" stroke="#0ec47e" stroke-miterlimit="10" stroke-width=".5"/>
  <circle cx="983.55" cy="452.17" r="9.57" fill="#73ef96" stroke="#0ec47e" stroke-miterlimit="10" stroke-width=".5"/>
  <circle cx="1002.69" cy="452.17" r="9.57" fill="#73ef96" stroke="#0ec47e" stroke-miterlimit="10" stroke-width=".5"/>
  <circle cx="344.45" cy="580.85" r="6.04" fill="#73ef96" stroke="#0ec47e" stroke-miterlimit="10" stroke-width=".5"/>
  <circle cx="344.45" cy="601.77" r="6.04" fill="#73ef96" stroke="#0ec47e" stroke-miterlimit="10" stroke-width=".5"/>
  <circle cx="338.41" cy="612.23" r="6.04" fill="#73ef96" stroke="#0ec47e" stroke-miterlimit="10" stroke-width=".5"/>
  <circle cx="320.3" cy="622.69" r="6.04" fill="#73ef96" stroke="#0ec47e" stroke-miterlimit="10" stroke-width=".5"/>
  <circle cx="332.38" cy="622.69" r="6.04" fill="#73ef96" stroke="#0ec47e" stroke-miterlimit="10" stroke-width=".5"/>
  <circle cx="344.45" cy="622.69" r="6.04" fill="#73ef96" stroke="#0ec47e" stroke-miterlimit="10" stroke-width=".5"/>
  <circle cx="826.45" cy="396.64" r="23.58" fill="#ff8fdd" stroke="red" stroke-miterlimit="10" stroke-width=".5"/>
  <circle cx="873.6" cy="396.64" r="23.58" fill="#ff8fdd" stroke="red" stroke-miterlimit="10" stroke-width=".5"/>
  <circle cx="920.75" cy="396.64" r="23.58" fill="#ff8fdd" stroke="red" stroke-miterlimit="10" stroke-width=".5"/>
</svg>