<?xml version="1.0" encoding="UTF-8"?><svg id="_レイヤー_1" xmlns="http://www.w3.org/2000/svg" viewBox="0 0 1366 768"><circle cx="669.83" cy="96.39" r="16.5" stroke-width="0"/><circle cx="653.33" cy="124.97" r="16.5" stroke-width="0"/><circle cx="669.83" cy="153.54" r="16.5" stroke-width="0"/><circle cx="653.33" cy="182.12" r="16.5" stroke-width="0"/><circle cx="669.83" cy="210.7" r="16.5" stroke-width="0"/><circle cx="768.83" cy="210.7" r="16.5" stroke-width="0"/><circle cx="801.83" cy="210.7" r="16.5" stroke-width="0"/><circle cx="834.83" cy="210.7" r="16.5" stroke-width="0"/><circle cx="488.33" cy="239.28" r="16.5" stroke-width="0"/><circle cx="521.33" cy="239.28" r="16.5" stroke-width="0"/><circle cx="554.33" cy="239.28" r="16.5" stroke-width="0"/><circle cx="587.33" cy="239.28" r="16.5" stroke-width="0"/><circle cx="620.33" cy="239.28" r="16.5" stroke-width="0"/><circle cx="653.33" cy="239.28" r="16.5" stroke-width="0"/><circle cx="686.33" cy="239.28" r="16.5" stroke-width="0"/><circle cx="719.33" cy="239.28" r="16.5" stroke-width="0"/><circle cx="752.33" cy="239.28" r="16.5" stroke-width="0"/><circle cx="785.33" cy="239.28" r="16.5" stroke-width="0"/><circle cx="636.83" cy="267.86" r="16.5" stroke-width="0"/><circle cx="653.33" cy="296.43" r="16.5" stroke-width="0"/><circle cx="636.83" cy="325.01" r="16.5" stroke-width="0"/><circle cx="653.33" cy="353.59" r="16.5" stroke-width="0"/><circle cx="785.33" cy="353.59" r="16.5" stroke-width="0"/><circle cx="537.83" cy="382.17" r="16.5" stroke-width="0"/><circle cx="570.83" cy="382.17" r="16.5" stroke-width="0"/><circle cx="603.83" cy="382.17" r="16.5" stroke-width="0"/><circle cx="636.83" cy="382.17" r="16.5" stroke-width="0"/><circle cx="669.83" cy="382.17" r="16.5" stroke-width="0"/><circle cx="702.83" cy="382.17" r="16.5" stroke-width="0"/><circle cx="768.83" cy="382.17" r="16.5" stroke-width="0"/><circle cx="801.83" cy="382.17" r="16.5" stroke-width="0"/><circle cx="455.33" cy="410.74" r="16.5" stroke-width="0"/><circle cx="488.33" cy="410.74" r="16.5" stroke-width="0"/><circle cx="521.33" cy="410.74" r="16.5" stroke-width="0"/><circle cx="653.33" cy="410.74" r="16.5" stroke-width="0"/><circle cx="686.33" cy="410.74" r="16.5" stroke-width="0"/><circle cx="719.33" cy="410.74" r="16.5" stroke-width="0"/><circle cx="752.33" cy="410.74" r="16.5" stroke-width="0"/><circle cx="785.33" cy="410.74" r="16.5" stroke-width="0"/><circle cx="818.33" cy="410.74" r="16.5" stroke-width="0"/><circle cx="851.33" cy="410.74" r="16.5" stroke-width="0"/><circle cx="471.83" cy="439.32" r="16.5" stroke-width="0"/><circle cx="669.83" cy="439.32" r="16.5" stroke-width="0"/><circle cx="735.83" cy="439.32" r="16.5" stroke-width="0"/><circle cx="768.83" cy="439.32" r="16.5" stroke-width="0"/><circle cx="834.83" cy="439.32" r="16.5" stroke-width="0"/><circle cx="867.83" cy="439.32" r="16.5" stroke-width="0"/><circle cx="900.83" cy="439.32" r="16.5" stroke-width="0"/><circle cx="933.83" cy="439.32" r="16.5" stroke-width="0"/><circle cx="455.33" cy="467.9" r="16.5" stroke-width="0"/><circle cx="653.33" cy="467.9" r="16.5" stroke-width="0"/><circle cx="719.33" cy="467.9" r="16.5" stroke-width="0"/><circle cx="752.33" cy="467.9" r="16.5" stroke-width="0"/><circle cx="917.33" cy="467.9" r="16.5" stroke-width="0"/><circle cx="950.33" cy="467.9" r="16.5" stroke-width="0"/><circle cx="471.83" cy="496.48" r="16.5" stroke-width="0"/><circle cx="669.83" cy="496.48" r="16.5" stroke-width="0"/><circle cx="702.83" cy="496.48" r="16.5" stroke-width="0"/><circle cx="933.83" cy="496.48" r="16.5" stroke-width="0"/><circle cx="966.83" cy="496.48" r="16.5" stroke-width="0"/><circle cx="455.33" cy="525.05" r="16.5" stroke-width="0"/><circle cx="653.33" cy="525.05" r="16.5" stroke-width="0"/><circle cx="686.33" cy="525.05" r="16.5" stroke-width="0"/><circle cx="950.33" cy="525.05" r="16.5" stroke-width="0"/><circle cx="983.33" cy="525.05" r="16.5" stroke-width="0"/><circle cx="471.83" cy="553.63" r="16.5" stroke-width="0"/><circle cx="636.83" cy="553.63" r="16.5" stroke-width="0"/><circle cx="669.83" cy="553.63" r="16.5" stroke-width="0"/><circle cx="966.83" cy="553.63" r="16.5" stroke-width="0"/><circle cx="455.33" cy="582.21" r="16.5" stroke-width="0"/><circle cx="587.33" cy="582.21" r="16.5" stroke-width="0"/><circle cx="620.33" cy="582.21" r="16.5" stroke-width="0"/><circle cx="686.33" cy="582.21" r="16.5" stroke-width="0"/><circle cx="983.33" cy="582.21" r="16.5" stroke-width="0"/><circle cx="471.83" cy="610.79" r="16.5" stroke-width="0"/><circle cx="537.83" cy="610.79" r="16.5" stroke-width="0"/><circle cx="570.83" cy="610.79" r="16.5" stroke-width="0"/><circle cx="603.83" cy="610.79" r="16.5" stroke-width="0"/><circle cx="669.83" cy="610.79" r="16.5" stroke-width="0"/><circle cx="702.83" cy="610.79" r="16.5" stroke-width="0"/><circle cx="455.33" cy="639.36" r="16.5" stroke-width="0"/><circle cx="488.33" cy="639.36" r="16.5" stroke-width="0"/><circle cx="521.33" cy="639.36" r="16.5" stroke-width="0"/><circle cx="554.33" cy="639.36" r="16.5" stroke-width="0"/></svg>